<svg width="296" height="106" viewBox="0 0 296 106" fill="none" xmlns="http://www.w3.org/2000/svg">
<g clip-path="url(#clip0_12_33)">
<path d="M20.2998 0H44.5198C46.2298 5.16 47.9198 10.33 49.6398 15.48C51.0598 10.37 51.6998 5.06 53.3298 0H80.1098C78.5598 4.54 78.0198 9.34 76.7898 13.97C90.4598 14.04 104.12 13.98 117.78 14C118.44 10.3 119.3 6.64 120.21 3C129.16 3 138.11 3 147.06 3C146.01 6.58 145.17 10.24 144.81 13.97C157.81 14.04 170.81 13.98 183.81 14C183.45 14.97 183.1 15.94 182.77 16.92C191.07 12.4 201.79 11.18 210.18 16.14C209.28 14.47 208.41 12.79 207.63 11.07C217.73 10.9 227.84 11.07 237.94 10.98C239.17 13.2 240.06 15.59 240.99 17.95C244.93 13.76 248.25 9.05 252.35 5.01C263.34 4.99 274.32 4.99 285.31 5.01C275.11 18.66 262.16 30.19 251.89 43.83C257.13 56.28 262.74 68.57 268.01 81C257.77 81 247.53 81 237.3 81C235.69 75.8 233.4 70.84 231.64 65.69C220.66 79.42 209.11 92.8 197.52 106H163.5C171.05 97.99 178.44 89.7 185.19 81C124.72 80.97 64.2498 81.05 3.77979 80.96C9.27979 53.98 14.8698 27 20.2998 0ZM27.1898 8C23.0398 26.19 19.3398 44.63 15.8498 62.97C19.1598 63.01 22.4698 63 25.7798 63C29.3998 50.42 30.1798 36.79 34.3798 24.57C39.2198 37.29 43.0198 50.38 48.0398 63.02C51.6398 62.98 55.2398 63 58.8398 63C62.2298 44.61 66.0298 26.22 70.1698 8C66.8798 8.05 63.5798 7.87 60.2898 8.08C55.8598 19.95 55.1298 33.91 51.6298 46.41C47.6798 33.5 42.5698 20.92 38.7598 8C34.8998 8 31.0498 8 27.1898 8ZM127.29 11.08C127.02 11.39 126.47 12.02 126.2 12.33C125.94 15.53 124.98 18.6 124.63 21.78C122.84 21.96 121.04 22 119.24 22.01C118.56 24.63 117.75 27.24 117.92 29.99C119.61 30 121.3 30 123 30C120.38 39.1 119.33 48.71 116.99 57.93C118.84 65.21 127.3 62.51 132.84 63C132.91 60.29 134.08 57.78 134.14 55.07C132.09 54.78 129.46 55.72 128.04 53.76C129.9 45.87 131.17 37.85 133.21 30C135.41 30 137.62 30 139.82 29.97C139.8 27.24 140.56 24.65 141.22 22.05C139.1 21.99 136.97 22 134.85 21.96C135.35 18.27 135.97 14.55 137.17 11C133.87 11.04 130.58 10.87 127.29 11.08ZM255.39 13C250.89 20.75 242.84 26.45 238.5 34.3C236.19 29.35 234.51 24.15 232.74 19C228.46 19 224.18 19 219.91 19C223.69 26.46 226.66 34.31 230.13 41.91C213.96 61.13 197.07 79.83 180.71 99.01C184.72 98.92 188.73 98.93 192.75 98.94C207.04 83.21 220.41 66.62 234.3 50.49C237.23 57.99 240.18 65.5 243.04 73.02C247.36 72.98 251.69 73.01 256.02 73C250.86 63.03 247.24 52.36 242.13 42.38C250.46 32.32 259.33 22.8 268.07 13.1C263.85 12.92 259.62 13.02 255.39 13ZM162.82 24.81C161.73 26.41 160.65 28.02 159.26 29.37C159.83 26.91 160.2 24.39 161.07 22C157.78 22 154.48 22 151.19 22C147.98 35.5 145.21 49.3 142.89 62.98C146.19 63.01 149.48 63 152.78 63C156.61 51.6 153.97 29.06 171.84 32C172.33 28.27 172.99 24.53 174.16 20.95C170 20.54 165.96 22.14 162.82 24.81ZM184.36 25.35C174.81 33.2 168.26 53.49 180.34 61.66C190.51 66.65 206.73 63.71 211.29 52.36C208.1 51.8 205.26 50.18 202.25 49.09C200.58 54.81 193.37 55.8 188.36 54.72C184.09 53.68 183.86 48.6 183.95 45.01C192.86 44.91 201.79 45.16 210.69 44.9C212.79 43.66 211.76 41.01 212.02 39.02C215.14 21.31 196.81 16.43 184.36 25.35ZM78.1898 22C75.5198 33.4 71.8298 45.1 72.0398 56.88C75.4998 67.52 91.2798 64.73 96.1598 56.6C95.7098 58.73 94.8098 60.75 94.8598 62.97C98.1898 63.02 101.53 63 104.86 63C107.22 49.29 110.04 35.57 113.16 22.01C109.87 22.04 106.58 21.87 103.29 22.08C103.02 22.39 102.46 23.01 102.19 23.32C99.6998 33.31 99.7898 62.48 82.9898 52.87C82.7598 42.41 86.4198 32.29 88.2098 22.03C84.8698 21.98 81.5298 22 78.1898 22ZM165.12 43.19C163.48 52.45 160.83 61.58 159.92 70.92C166.89 70.93 173.87 70.92 180.85 70.98C167.53 66.74 163.54 51.93 167.05 39.53C166.21 40.62 165.32 41.8 165.12 43.19ZM35.1498 58.2C34.7098 62.49 33.1098 66.59 32.8698 70.91C35.9498 70.93 39.0298 70.92 42.1198 70.98C39.9598 65.63 38.0098 60.18 36.6298 54.58C36.1098 55.77 35.3198 56.89 35.1498 58.2ZM66.1398 64.65C65.9898 66.8 66.2498 69.09 65.0698 71.02C68.5298 70.85 71.9898 71 75.4498 70.97C71.8398 69.57 69.4898 66.35 66.1398 64.65ZM112.12 65.74C112.02 67.54 111.8 69.34 111.09 71.01C114.22 70.84 117.35 71.07 120.49 70.95C117.37 69.73 114.28 68.42 112.12 65.74ZM8.99979 74C8.99979 75.33 8.99979 76.66 8.99979 77.98C68.9298 78 128.85 77.98 188.78 77.99C189.55 76.65 190.33 75.31 191.14 74C130.43 74 69.7098 74 8.99979 74Z" fill="white"/>
<path d="M191.81 30.8691C193.77 29.3991 196.36 30.1691 198.63 30.0091C199.7 31.1791 200.81 32.2991 201.97 33.3691C201.99 34.9091 202 36.4491 202.01 37.9891C196.62 38.0091 191.22 37.9991 185.83 37.9991C187.47 35.3591 188.84 32.2491 191.81 30.8691Z" fill="white"/>
<path d="M42.5899 90.6705C43.2699 88.7705 46.6499 86.9305 51.0899 86.0605C53.6599 86.2905 56.0799 87.4606 58.0199 89.1506C58.0099 89.8906 57.9899 91.3705 57.9799 92.1005C56.3499 92.0105 54.6099 91.8705 52.7799 91.6405C50.9499 91.4205 49.2299 91.1406 47.6199 90.8306C48.3399 94.8006 53.7699 93.4805 56.1799 95.7705C56.9299 96.7305 57.4899 97.8205 58.1399 98.8505C57.1799 101.901 55.6299 104.811 52.4499 106.001H43.3299C41.6899 104.261 39.6999 102.591 39.7199 99.9806C41.8599 100.161 44.2899 99.4506 46.1599 100.801C47.5599 101.831 49.2699 102.051 50.9399 102.221C50.9599 101.471 50.9999 99.9805 51.0199 99.2405C47.7399 98.8405 44.3499 98.0706 41.8599 95.7606C41.8399 95.1306 41.8499 94.2305 41.9999 93.1705C42.1999 91.8205 42.5299 90.8305 42.5899 90.6705Z" fill="white"/>
<path d="M121.73 91.8008C123.78 88.5208 127.26 87.2108 128 86.9708C129.26 86.5708 132.46 85.5608 135.66 87.3008C139.39 89.3208 140.12 93.4308 140.21 93.9808C138.24 94.0008 136.27 94.0008 134.3 94.0008C134.18 93.6608 133.61 92.0708 131.92 91.2308C131.52 91.0308 130.52 90.6108 129.32 90.7908C126.45 91.2208 125.25 94.6808 125.14 95.0108C124.93 95.6408 123.9 98.7708 125.88 100.781C127.37 102.281 129.54 102.111 129.91 102.071C131.18 101.221 132.25 100.131 133.47 99.2108C135.36 98.8408 137.3 99.0208 139.22 98.9808C137.78 101.981 135.47 104.421 132.55 106.001H124.43C118.81 103.731 118.97 96.2208 121.73 91.8008Z" fill="white"/>
<path d="M3.17 87.0007C8.84 87.4907 15.21 85.4707 20.14 89.1507C20.46 92.1207 19.6 94.7607 17.03 96.4307C18.29 99.4707 18.02 102.791 18.03 106.001H12.05C12.02 104.101 12.09 102.191 11.88 100.301C10.86 98.5907 8.77 99.0907 7.11 98.8607C7 101.261 7.22 103.801 6.03 106.001H0V103.831C1.54 98.3607 2.5 92.6607 3.17 87.0007ZM9.29 90.9207C8.8 92.2907 8.25 93.6407 7.77 95.0107C10 94.8207 13.34 95.9007 14.17 92.9907C13.57 90.7207 11.15 90.9307 9.29 90.9207Z" fill="white"/>
<path d="M24.1702 86.9991C29.5402 87.0091 34.9002 86.9491 40.2702 87.0491C40.0002 88.4291 39.9702 89.9891 38.7102 90.8991C35.8402 91.1391 32.9702 90.9791 30.1002 90.9991C29.9802 91.7491 29.7602 93.2491 29.6402 93.9991C32.1002 94.0091 34.5502 93.9891 37.0102 93.9891C37.0002 95.4391 36.9902 96.8891 36.9702 98.3391C34.2302 98.5091 31.4602 98.3091 28.7402 98.6991C28.4302 99.2991 27.8302 100.489 27.5302 101.079C31.0602 101.219 34.6002 101.179 38.1302 101.159C37.6102 102.769 37.1002 104.389 36.5702 105.999H20.7402C22.3502 99.7691 23.4202 93.3891 24.1702 86.9991Z" fill="white"/>
<path d="M63.2902 87.1004C68.1902 86.8204 73.1002 87.0804 78.0002 87.0004C78.0002 88.3304 78.0002 89.6704 78.0002 91.0004C74.6702 91.0004 71.3302 91.0004 68.0002 91.0004C68.0002 91.7504 68.0002 93.2504 68.0002 94.0004C70.5602 94.0104 73.1202 93.9904 75.6902 93.9804C75.3102 95.4604 75.0102 96.9704 74.7402 98.4804C72.2002 98.4704 69.6702 98.4904 67.1302 98.4304C67.0802 99.1104 66.9602 100.48 66.9002 101.16C70.0102 101.17 73.1202 101.17 76.2302 101.21C76.0202 102.84 75.7702 104.47 75.1402 106H58.9902C60.7102 100.32 61.4402 94.2604 62.2302 88.3504C62.4902 88.0404 63.0302 87.4104 63.2902 87.1004Z" fill="white"/>
<path d="M87.1901 86.9503C89.3401 87.3603 92.5201 85.9303 93.7301 88.3503C94.8801 94.2303 95.3101 100.28 97.1701 106H91.2101C90.6101 105.02 90.0401 104.02 89.5101 103C87.8401 103 86.1701 103 84.5001 103C83.9601 104.02 83.3801 105.02 82.7801 106H76.8301C80.2701 99.6403 83.3801 93.1103 87.1901 86.9503ZM85.9001 99.0103C87.3401 99.0003 88.7801 98.9803 90.2201 98.9603C89.9301 97.1203 89.3001 95.3703 88.6801 93.6303C87.7801 95.4303 86.8901 97.2503 85.9001 99.0103Z" fill="white"/>
<path d="M102.2 86.9997C106.4 87.0697 110.62 86.8297 114.83 87.0797C116.26 87.4897 118 87.9597 118.59 89.5197C120.1 92.2197 117.44 94.6997 116.02 96.7897C117.45 99.6597 116.93 102.92 117.03 106H111.05C111.02 104.09 111.08 102.18 110.88 100.29C109.87 98.6697 107.89 99.0597 106.28 98.8397C105.98 101.27 105.39 103.66 104.66 106H98.79C99.95 99.6697 100.79 93.2797 102.2 86.9997ZM106.87 95.0197C109.05 94.8297 112.39 95.8797 113.14 92.9897C111.88 89.2297 105.61 90.8897 106.87 95.0197Z" fill="white"/>
<path d="M143.36 87.1607C145.59 87.0307 147.83 86.9907 150.07 86.9707C149.5 88.9307 149.01 90.9207 148.77 92.9607C150.78 92.9907 152.78 93.0007 154.78 93.0007C154.98 90.9607 155.35 88.9407 155.98 86.9807C158.05 86.9907 160.11 87.0007 162.18 87.0207C160.93 93.3307 159.64 99.6407 158.75 106.001H152.36C152.95 103.671 153.12 101.251 153.79 98.9307C151.57 99.2907 148.58 98.1007 147.13 100.321C146.91 102.201 146.97 104.101 146.94 106.001H139.94C141.69 99.8607 142.41 93.4607 143.36 87.1607Z" fill="white"/>
<path d="M290.27 6.66905C291.12 6.76905 292.07 6.36905 292.81 7.08905C292.86 7.66905 292.73 8.18905 292.34 8.51905C292.53 9.11905 292.49 9.76905 292.49 10.399H291.59C291.59 10.029 291.6 9.64905 291.56 9.27905C291.41 8.93905 291.09 9.03905 290.85 8.99905C290.83 9.46905 290.87 9.96905 290.69 10.399H289.79V9.97905C290.03 8.90905 290.17 7.77905 290.27 6.66905ZM291.19 7.43905C291.12 7.70905 291.03 7.97905 290.96 8.23905C291.29 8.19905 291.79 8.41905 291.92 7.83905C291.83 7.39905 291.47 7.43905 291.19 7.43905Z" fill="white"/>
<path d="M291.24 13.2595C288.69 13.2595 286.62 11.1895 286.62 8.63953C286.62 6.08953 288.69 4.01953 291.24 4.01953C293.79 4.01953 295.86 6.08953 295.86 8.63953C295.85 11.1895 293.78 13.2595 291.24 13.2595ZM291.24 5.02953C289.24 5.02953 287.62 6.64953 287.62 8.64953C287.62 10.6395 289.24 12.2695 291.24 12.2695C293.23 12.2695 294.86 10.6495 294.86 8.64953C294.85 6.64953 293.23 5.02953 291.24 5.02953Z" fill="white"/>
</g>
<defs>
<clipPath id="clip0_12_33">
<rect width="295.85" height="106" fill="white"/>
</clipPath>
</defs>
</svg>
