<?xml version="1.0" encoding="UTF-8"?>
<svg version="1.1" viewBox="0 0 2048 613" width="491" height="147" xmlns="http://www.w3.org/2000/svg">
<path transform="translate(281,8)" d="m0 0 88 1 20 4 18 5 20 9 16 9 13 10 11 10 7 8 9 13 10 19 6 18 4 24 1 18-2 25-3 16-8 22-9 17-8 12-9 10-7 7-11 8-21 14h-2l5 5 18 13 15 14 11 14 9 16 5 12 4 14 2 24v11l-2 25-6 24-9 24-9 19-13 21-10 12-9 11-12 11-11 8-14 9-23 12-20 8-20 6-29 6-10 1h-120v-18l8-58 3-21 2-22 3-8 68-1 20-2 14-3 16-8 8-6 11-11 9-15 4-13v-28l-4-11-6-10-7-7-10-6-10-4-17-2-54-1-24-1-1-1 1-11 6-38 5-37 2-16 2-4 74-1 16-2 15-6 10-7 7-6 9-13 4-11 2-6 1-8v-11l-3-12-6-11-7-7-11-6-9-3-18-1-70-1 10-70 6-48 1-5z" fill="#E34B44"/>
<path transform="translate(63,478)" d="m0 0h55l56 1-2 16-15 107-2 6-150 1-1-5 7-49 7-50 3-24 1-2z" fill="#0D0B0B"/>
<path transform="translate(88,8)" d="m0 0h151l-2 22-12 86-2 15-3 2h-149l-1-3 9-63 7-48z" fill="#0C0B0B"/>
<path transform="translate(1669,213)" d="m0 0h25l8 7 8 12 14 20 12 17 13 19 13 18 13 19 13 17 5 4v-128l1-5h26l6 1v188l-1 1h-34l-8-10-13-19-11-15-14-20-24-34-13-18-9-12-3-1v128l-1 1h-33l-1-2v-187z" fill="#E34B44"/>
<path transform="translate(977,213)" d="m0 0h60l16 1 17 4 16 8 11 9 8 9 10 19 5 17 2 16v30l-2 14-5 15-6 12-8 11-4 5-10 7-16 8-23 5h-86l-1-59v-83l1-47zm21 35-2 3v110l1 9 5 1h28l22-4 10-4 9-7 6-7 7-14 1-4 1-17v-14l-2-17-6-14-11-12-8-4-14-4-12-1z" fill="#E34B44"/>
<path transform="translate(596,213)" d="m0 0h22l30 1 19 3 13 5 9 7 6 8 4 10 1 4v20l-4 10-7 10-7 6-18 8-1 2 13 2 20 8 8 6 7 8 5 11 1 8v12l-3 9-6 11-8 8-9 5-12 4-25 4h-88l-1-7-1-153 1-29zm4 28v52l5 1h28l17-3 9-5 7-8 2-6v-12l-3-8-9-8-7-3zm0 79v57h41l15-1 13-5 7-5 4-8 1-11-3-10-7-8-6-4-15-5z" fill="#E34B44"/>
<path transform="translate(824,210)" d="m0 0h18l18 3 17 5 17 9 13 11 8 10 9 16 5 16 4 28-1 14-4 18-6 16-6 10-8 10-11 10-15 9-13 5-16 4-9 2h-25l-4-2-10-1-5-2-9-2-17-9-13-11-9-10-9-16-5-15-3-12-1-16v-13l2-14 6-18 8-15 9-10 10-10 13-8 12-5 14-4zm-3 34-16 4-13 7-12 12-8 17-3 16v17l2 14 8 16 8 11 9 7 18 7 16 3h7l18-4 15-6 10-8 10-13 4-11 3-10 1-17-2-15-5-15-6-10-6-7-11-7-11-5-6-2-7-1z" fill="#E34B44"/>
<path transform="translate(56,243)" d="m0 0 151 1-4 29-9 64-2 12-2 3h-150l2-21 7-48 6-39z" fill="#0D0B0B"/>
<path transform="translate(1938,210)" d="m0 0h18l25 4 18 6 11 6 10 8 7 8 8 12 7 17 1 4v7h-34l-8-16-5-8-14-9-12-5-9-2h-18l-16 5-10 6-10 9-8 10-5 12-3 20 3 25 4 10 8 14 12 12 16 8 7 2h24l15-5 11-6 7-7 4-6 6-13 2-1h23l11 1-2 9-8 18-8 12-10 10-19 11-15 5-18 3h-17l-15-2-12-2-16-7-10-6-10-9-8-8-9-14-6-16-4-19v-31l5-20 6-14 10-15 15-15 11-7 11-5 15-4z" fill="#E24A43"/>
<path transform="translate(1372,211)" d="m0 0h21l22 4 13 5 11 8 8 8 8 16 4 12v9l-1 1h-33l-2-6-3-10-7-9-9-6-18-4h-16l-13 4-10 6-3 4-1 4v11l5 8 7 6 10 5 33 10 24 8 14 7 9 7 7 8 6 13 1 4v18l-6 14-7 9-9 8-15 7-9 3-14 3h-33l-18-4-12-5-13-10-9-11-4-8-4-13v-12h34l3 13 7 10 7 6 9 4 15 3h8l15-3 10-5 7-8 2-5v-11l-4-10-7-6-12-6-26-8-24-7-16-7-9-6-7-7-7-11-2-9v-16l3-10 6-10 7-7 13-8 14-5z" fill="#E34B44"/>
<path transform="translate(1600,213)" d="m0 0h20l18 1-8 15-13 22-15 26-13 23-13 22-3 5-1 62-1 14h-34l-1-74-4-10-14-24-15-27-16-28-10-21 1-5h34l6 9 14 26 20 35 3 4 4-2 25-45 14-26z" fill="#E24A43"/>
<path transform="translate(1262,213)" d="m0 0 35 1-2 5-14 25-14 24-15 26-16 27-3 9-1 72-1 1h-32l-1-1-1-17v-54l-4-10-15-27-12-21-14-25-18-32v-2h38l6 10 16 29 15 26 6 9 4-2 14-25 9-16 13-24 5-7z" fill="#E34B44"/>
</svg>
