<?xml version="1.0" encoding="UTF-8"?>
<svg version="1.1" viewBox="0 0 1713 2048" width="123" height="147" xmlns="http://www.w3.org/2000/svg">
<path transform="translate(855,22)" d="m0 0h262l46 1 51 3 38 4 29 5 29 7 29 8 30 10 26 11 26 12 27 14 27 16 15 10 17 12 14 11 10 9 8 7 10 9 9 9 7 8 12 13 11 14 10 13 15 23 9 15 15 28 13 29 8 23 8 24 6 26 7 38 4 38 1 23v32l-1 35-3 42-3 25-4 17-8 25-14 41-12 29-9 17-14 24-16 26-12 19-8 10-9 10-7 7-7 8-3 3h-2v2l-8 7-19 19-8 7-10 8-13 9-20 13-17 11-19 12-19 10 5 4 20 11 16 11 19 14 14 11 11 9 14 13 8 7 20 20 9 11 11 13 12 17 12 18 10 18 9 17 13 29 7 19 9 31 6 29 5 32 2 20 1 19v34l-2 33-3 24-9 50-6 25-9 33-14 41-15 37-14 32-16 33-14 25-14 22-11 16-14 19-10 14-13 16-12 14-10 11-7 8-13 14-8 7-16 15-22 18-24 18-32 21-20 12-21 12-19 10-23 11-29 13-36 14-36 12-29 8-38 9-55 11-43 7-34 4-42 3-29 1h-104l-202-1-10-1-1-1v-9l9-66 11-81 18-130 15-107 7-47 2-5 236-1 46-2 24-3 26-7 23-8 25-12 14-8 13-9 13-10 11-9 16-16 9-11 12-16 11-18 11-21 8-24 6-27 2-15 1-21-2-23-4-20-8-24-8-17-10-16-13-16-10-11-11-9-11-8-18-10-15-7-18-6-18-5-16-2-38-2-244-1-5-1v-12l16-112 10-74 13-95 7-50 3-17 3-8h131l105-1 25-2 33-6 28-7 20-8 21-11 17-12 13-12 9-8 7-8 10-11 9-12 9-14 11-23 9-27 4-19 2-15v-31l-4-25-7-21-8-17-8-12-8-10-12-12-16-12-16-9-16-7-19-5-25-3-43-2-228-1-4-2v-11l9-58 19-138 13-93 9-66 8-54z" fill="#ED4E46"/>
<path transform="translate(74,1594)" d="m0 0 510 1 1 2-6 46-11 76-14 98-12 85-15 108-4 28-2 4h-490l-18-1-1-1v-13l5-46 13-97 9-64 16-115 12-81 4-25 1-4z" fill="#080707"/>
<path transform="translate(294,22)" d="m0 0h509l1 5-9 62-13 93-14 100-6 44-13 91-3 24-3 6-2 1h-508l-2-2 1-11 13-89 5-36 9-64 28-200 4-21z" fill="#080707"/>
<path transform="translate(184,811)" d="m0 0h509l1 1-1 13-7 49-7 48-9 62-11 79-8 57-7 50-3 7-4 3h-500l-8-1-1-4 7-40 9-66 7-49 9-65 14-98 7-39z" fill="#080707"/>
<path transform="translate(294,22)" d="m0 0h509l1 5-9 62-13 93-14 100-6 44-13 91-3 24-3 6-2 1h-508l-2-2 1-11 13-89 5-36 9-64 28-200 4-21zm0 2-3 8-3 26-11 75-9 66-5 33-10 72-7 51-6 40-5 30-1 9v12l7 1h490l8-1 3-6 6-29 5-35 6-45 7-46 7-55 7-46 7-55 7-49 5-40 3-11v-5z" fill="#FEFEFE"/>
<path transform="translate(1142,1365)" d="m0 0h1v18l-3 24-5 19-6 16-10 21-9 15-10 15-13 16-27 27-20 15-24 14-21 10-24 9-28 7-19 3-23 2-24 1-60 1-180 1-3 21-4 23-7 56-7 47-7 55-7 47-8 61-5 32-6 46-6 35-3 15h-1l1-14 8-58 11-81 18-130 15-107 7-47 2-5 236-1 46-2 24-3 26-7 23-8 25-12 14-8 13-9 13-10 11-9 16-16 9-11 12-16 11-18 11-21 8-24 6-27 2-15z" fill="#FEFEFE"/>
<path transform="translate(1107,456)" d="m0 0 8 1 15 6 14 8 12 9 13 12 11 11 12 18 8 15 6 16 4 14 2 17v26l-2 19-5 23-9 27-8 16-6 11-11 15-7 9-11 13-3 1-2 4-9 9-10 8-9 7-15 10-16 8-20 8-22 7-38 6-18 2-30 1-197 1-18 1-4 21-9 70-7 49-7 55-6 42-7 53-8 53-3 18 33 2 210 1v1h-240l-5-1v-12l16-112 10-74 13-95 7-50 3-17 3-8h131l105-1 25-2 33-6 28-7 20-8 21-11 17-12 13-12 9-8 7-8 10-11 9-12 9-14 11-23 9-27 4-19 2-15v-31l-4-25-7-21-8-17-8-12-8-10-12-12-16-12-16-9-16-7-6-2z" fill="#FEFEFE"/>
<path transform="translate(74,1594)" d="m0 0 510 1 1 2-6 46-11 76-14 98-12 85-10 72-2 12h-1l1-16 5-40 6-39 8-64 6-37 8-59 7-48 7-53 6-34-8 1-81 1h-422v-3z" fill="#FEFEFE"/>
<path transform="translate(1419,965)" d="m0 0 5 2 20 11 16 11 19 14 14 11 11 9 14 13 8 7 20 20 9 11 11 13 12 17 12 18 10 18 9 17 13 29 7 19 9 31 6 29 5 32 2 20 1 19v34l-2 33-3 24-9 50-6 25-9 33-14 41-15 37-14 32-16 33-14 25-14 22-11 16-14 19-10 14-13 16-12 14v-3l9-11 10-13 12-16 10-13 10-15 10-16 8-13 12-20 16-32 13-28 14-33 10-27 15-47 11-47 5-27 4-32 2-20 1-19v-39l-2-26-4-33-6-31-10-36-8-22-9-20-15-30-13-22-14-20-11-14-9-10-7-8-7-7-7-8-8-7-7-7-8-7-16-13-18-13-15-10-26-15-8-6z" fill="#FEFEFE"/>
<path transform="translate(1401,1873)" d="m0 0 2 1-7 6-9 7-14 10-29 19-20 12-21 12-19 10-23 11-29 13-36 14-36 12-29 8-38 9-55 11-43 7-34 4-42 3-29 1h-104l-202-1-10-1-1-3h42l190 1h100l39-2 43-4 36-6 49-9 33-7 48-12 40-13 33-13 36-16 42-21 23-13 38-24 17-12 13-10z" fill="#FEFEFE"/>
<path transform="translate(855,22)" d="m0 0h262l46 1 51 3v1h-23l-27-1-75-1h-235l-3 25-7 58-8 57-5 40-9 62-8 58-10 72-6 33-3 15 25 1 66 1v1h-88l-4-2v-11l9-58 19-138 13-93 9-66 8-54z" fill="#FEFEFE"/>
<path transform="translate(527 2e3)" d="m0 0h1l-1 14-4 28-2 4h-490l-18-1-1-4 95 1h410l3-6 4-22z" fill="#FEFEFE"/>
<path transform="translate(1246,30)" d="m0 0 13 1 31 6 35 9 29 9 15 5 26 11 26 12 27 14 27 16 15 10 17 12 14 11 10 9 8 7 10 9 9 9 7 8 12 13 11 14 10 13 15 23 9 15 15 28 13 29 8 23 8 24 6 26 7 38 4 38v10h-1l-8-55-7-36-10-36-11-32-11-25-13-26-17-28-11-16-9-12-11-13-7-8-10-10-7-8-8-8-8-7-15-13-12-10-18-13-15-9-13-8-24-13-25-13-28-13-27-11-23-7-36-10-36-7-16-4z" fill="#FEFEFE"/>
<path transform="translate(180,822)" d="m0 0h1l-1 15-15 106-9 64-5 35-7 52-6 39-5 41-1 3 507 1-2 2h-500l-8-1-1-4 7-40 9-66 7-49 9-65 14-98z" fill="#FBE2E1"/>
<path transform="translate(184,811)" d="m0 0h509l1 1-1 13-7 49-7 48-9 62-11 79-8 57-7 50-3 7-2 1 6-40 8-53 6-46 8-52 7-53 7-46 7-55 3-17 1-4-10 1h-499z" fill="#FDFCFC"/>
<path transform="translate(67,1624)" d="m0 0h1l-1 17-6 47-7 49-8 58-6 42-7 52-6 40-8 63-5 33h-1v-9l6-50 11-82 9-64 16-115z" fill="#FEFEFE"/>
<path transform="translate(1680,581)" d="m0 0h1v11l-4 37-4 17-8 25-14 41-12 29-9 17-14 24-16 26-12 19-8 10-9 10-7 7-7 8-3 3h-2v2l-8 7-19 19-8 7-10 8-13 9-20 13-17 11-19 12-7 4-2-1 10-7 38-24 15-10 18-13 10-8 13-12 40-40 11-14 13-20 15-25 14-24 12-23 11-27 8-22 5-16 8-27 5-26z" fill="#FEFEFE"/>
<path transform="translate(180,822)" d="m0 0h1l-1 15-15 106-9 64-5 35-7 52-6 39-2 2v-8l10-72 6-42 8-58 14-98z" fill="#FEFEFE"/>
<path transform="translate(991,446)" d="m0 0h44l32 1 19 2 15 4 6 2-4 1-15-3-34-3-28-1-94-1v-1z" fill="#FEFEFE"/>
<path transform="translate(1094,1236)" d="m0 0 7 6 9 10 12 19 10 19 7 18 3 13 1 9v27h-1l-2-23-4-20-8-24-8-17-10-16-13-16-3-3z" fill="#FEFEFE"/>
<path transform="translate(1e3 1185)" d="m0 0 10 1 27 9 17 8 19 13 1 2-5-2-11-7-21-11-19-7-18-5z" fill="#FEFEFE"/>
<path transform="translate(21,2045)" d="m0 0 5 2v1h-9z" fill="#FEFEFE"/>
<path transform="translate(13,2044)" d="m0 0 7 1-4 2h-3z" fill="#FEFEFE"/>
<path transform="translate(573,2043)" d="m0 0 1 2 4 1h-5z" fill="#FEFEFE"/>
<path transform="translate(30,2046)" d="m0 0 2 2-4-1z" fill="#FEFEFE"/>
</svg>
